<svg width="21" height="20" viewBox="0 0 21 20" fill="none" xmlns="http://www.w3.org/2000/svg">
<path fill-rule="evenodd" clip-rule="evenodd" d="M7.38255 1.07637C5.36335 2.05126 4.93798 5.0348 6.52399 7.09651C7.05664 7.78876 7.26137 7.91339 7.95774 7.96825C9.37755 8.08009 10.1576 7.1748 10.5787 4.92713C10.864 3.40439 10.5612 2.17438 9.7011 1.36192C9.02302 0.721546 8.30149 0.632658 7.38255 1.07637ZM13.5126 1.56524C12.9629 1.7909 12.573 2.16429 12.124 2.89507C11.5659 3.80317 11.504 4.04351 11.5405 5.15716C11.6459 8.37038 13.628 9.8632 15.562 8.18593C16.9532 6.97969 17.5073 4.20439 16.6681 2.64791C15.9927 1.3953 14.8667 1.00907 13.5126 1.56524ZM2.08786 7.30699C0.423552 8.72727 0.155799 10.9283 1.45503 12.5069C1.84701 12.9831 2.28719 13.2774 2.77921 13.3925C3.43041 13.5447 3.60274 13.4944 4.25553 12.961C5.02039 12.336 5.75723 10.8533 5.8428 9.76699C5.9099 8.9152 5.24962 7.48828 4.56998 7.01614C3.63874 6.36934 3.11467 6.43078 2.08786 7.30699ZM18.2927 7.86428C17.1815 8.15345 15.4128 10.2312 15.055 11.6676C14.5139 13.8403 16.6971 15.3117 18.5663 14.034C19.3388 13.506 20.3296 12.0433 20.5708 11.0753C21.0554 9.12878 19.8676 7.45448 18.2927 7.86428ZM9.41326 10.7165C9.13808 10.7975 7.69308 11.863 6.20214 13.0842C5.17822 13.9049 4.53587 14.2748 3.65641 15.2862C3.31323 16.0546 3.29884 17.1597 3.94069 17.8025C4.81253 18.676 5.61789 18.8166 7.88957 18.4916C9.82003 18.2157 9.85698 18.2176 11.96 18.7132C15.0571 19.4432 16.3998 19.1234 16.8384 17.5516C17.0955 16.63 16.6512 15.9586 15.2722 15.1852C14.1863 14.5762 13.5816 13.9179 12.5511 12.2229C11.7455 10.8979 10.6238 10.3593 9.41326 10.7165Z" fill="#FFCF32"/>
</svg>
