<svg width="52" height="52" viewBox="0 0 52 52" fill="none" xmlns="http://www.w3.org/2000/svg">
<path d="M26 40.5L24.36 39.1371C21.5395 36.7521 19.2077 34.6948 17.3646 32.965C15.5215 31.2353 14.0533 29.6889 12.96 28.3261C11.8667 26.9632 10.66 24.6241 10.66 24.6241C10.22 23.5191 10 22.4018 10 21.2722C10 19.0583 10.8067 17.2094 12.42 15.7257C14.0333 14.2419 16.0267 13.5 18.4 13.5C19.92 13.5 21.3267 13.8315 22.62 14.4945C23.9133 15.1576 25.04 16.1153 26 17.3677C27.12 16.0416 28.3067 15.0655 29.56 14.4393C30.8133 13.8131 32.16 13.5 33.6 13.5C35.9733 13.5 37.9667 14.2419 39.58 15.7257C41.1933 17.2094 42 19.0583 42 21.2722C42 22.4018 41.78 23.5191 41.34 24.6241C40.9 25.7292 40.1333 26.9632 39.04 28.3261C37.9467 29.6889 36.4785 31.2353 34.6354 32.965C32.7923 34.6948 30.4605 36.7521 27.64 39.1371L26 40.5Z" fill="#FFCF32"/>
</svg>
