<svg width="30" height="30" viewBox="0 0 30 30" fill="none" xmlns="http://www.w3.org/2000/svg">
<mask id="mask0_42_5040" style="mask-type:luminance" maskUnits="userSpaceOnUse" x="0" y="1" width="30" height="28">
<path d="M29.9533 1.25879H0.163086V28.7413H29.9533V1.25879Z" fill="white"/>
</mask>
<g mask="url(#mask0_42_5040)">
<path d="M14.1391 27.5768L14.2909 27.623C14.849 27.7919 15.3762 27.9511 15.7237 28.6493C15.7325 28.6669 15.7448 28.6824 15.76 28.695C15.7751 28.7074 15.7927 28.7166 15.8115 28.7219C15.8235 28.725 15.8356 28.7265 15.848 28.7265C15.8749 28.7265 15.9012 28.7187 15.9238 28.7038C16.18 28.5354 16.4213 28.3828 16.6504 28.2379C17.1304 27.9341 17.5451 27.6721 17.9415 27.3666C19.3636 26.2948 20.6612 25.0648 21.8099 23.6991C23.3195 21.8736 24.8806 19.9859 26.3502 18.0099C27.2699 16.7729 28.0539 15.392 28.7166 14.1951C29.3795 12.9842 29.7742 11.6424 29.8734 10.2625C30.0532 7.99467 29.519 5.95058 28.2857 4.18704C26.9132 2.22428 25.0879 1.2684 22.8643 1.34209C20.3558 1.42673 18.1497 2.39489 16.307 4.21981C16.2176 4.31249 16.1349 4.41147 16.0595 4.51597C15.9162 4.70465 15.7803 4.88377 15.5757 4.95472C13.4263 2.8409 11.783 2.01401 9.32458 1.80208C6.80162 1.58441 4.75912 2.40367 3.25348 4.23583C2.50629 5.14146 1.85137 6.12082 1.2987 7.15909C0.120631 9.38627 -0.124851 11.7552 0.57021 14.2006C1.19009 16.3832 2.22368 18.4235 3.61367 20.2082C6.3927 23.7878 9.93406 26.2673 14.1391 27.5768ZM3.73216 7.58088C4.055 6.96661 4.41465 6.37282 4.80907 5.80274C5.74679 4.42081 7.06839 3.72336 8.74436 3.72336C8.95199 3.72336 9.16503 3.73406 9.38351 3.75548C11.6221 3.97519 13.4179 4.971 14.7209 6.71511C14.8775 6.92459 15.048 7.1185 15.1983 7.28939C15.2595 7.35913 15.317 7.42465 15.3678 7.48469C15.3889 7.50969 15.4182 7.52635 15.4503 7.53181C16.0546 7.6371 16.2989 7.32069 16.4802 7.01688C17.5266 5.26442 19.1553 4.21834 21.6062 3.72504C22.1865 3.6239 22.7785 3.6089 23.3632 3.68056C24.2915 3.76903 25.0879 4.22971 25.7304 5.0494C26.4626 5.98964 26.8967 7.13113 26.9753 8.32454C27.105 9.70397 26.8541 11.0927 26.2505 12.3372C25.7957 13.3016 25.2781 14.2346 24.701 15.1298C23.6294 16.724 22.4848 18.3088 21.3783 19.8414L20.9936 20.3746C20.1696 21.5171 19.3173 22.6688 18.4933 23.7826C18.196 24.1843 17.8989 24.5863 17.6019 24.9886C17.4738 25.1621 17.3405 25.3323 17.1993 25.5125C17.1528 25.5719 17.1055 25.6323 17.0574 25.694C16.6622 25.5299 16.2773 25.3694 15.9 25.2127C15.0092 24.8428 14.1599 24.49 13.3127 24.1319C10.9675 23.1567 8.84328 21.7101 7.06906 19.8801C5.24997 17.9902 3.98917 15.9684 3.2149 13.699C2.50887 11.6289 2.67798 9.62757 3.73216 7.58088Z" fill="#090808"/>
</g>
</svg>
