<svg width="30" height="30" viewBox="0 0 30 30" fill="none" xmlns="http://www.w3.org/2000/svg">
<mask id="mask0_42_5046" style="mask-type:luminance" maskUnits="userSpaceOnUse" x="0" y="1" width="30" height="28">
<path d="M29.9533 1.25879H0.163086V28.7413H29.9533V1.25879Z" fill="white"/>
</mask>
<g mask="url(#mask0_42_5046)">
<path d="M14.1391 27.5768L14.2909 27.623C14.849 27.7919 15.3762 27.9511 15.7237 28.6493C15.7325 28.6669 15.7448 28.6824 15.76 28.695C15.7751 28.7074 15.7927 28.7166 15.8115 28.7219C15.8235 28.725 15.8356 28.7265 15.848 28.7265C15.8749 28.7265 15.9012 28.7187 15.9238 28.7038C16.18 28.5354 16.4213 28.3828 16.6504 28.2379C17.1304 27.9341 17.5451 27.6721 17.9415 27.3666C19.3636 26.2948 20.6612 25.0648 21.8099 23.6991C23.3195 21.8736 24.8806 19.9859 26.3502 18.0099C27.2699 16.7729 28.0539 15.392 28.7166 14.1951C29.3795 12.9842 29.7741 11.6424 29.8734 10.2625C30.0532 7.99467 29.519 5.95058 28.2857 4.18704C26.9132 2.22428 25.0879 1.2684 22.8643 1.34209C20.3558 1.42673 18.1497 2.39489 16.307 4.21981C16.2176 4.31249 16.1349 4.41147 16.0595 4.51597C15.9162 4.70465 15.7803 4.88377 15.5757 4.95472C13.4263 2.8409 11.783 2.01401 9.32458 1.80208C6.80162 1.58441 4.75912 2.40367 3.25348 4.23583C2.50629 5.14146 1.85137 6.12082 1.2987 7.15909C0.120631 9.38627 -0.124851 11.7552 0.57021 14.2006C1.19009 16.3832 2.22368 18.4235 3.61367 20.2082C6.3927 23.7878 9.93406 26.2673 14.1391 27.5768Z" fill="#FFCF32"/>
</g>
</svg>
