<svg width="58" height="50" viewBox="0 0 58 50" fill="none" xmlns="http://www.w3.org/2000/svg">
<g clip-path="url(#clip0_42_5036)">
<path d="M48.441 22.6459L48.3261 22.598L48.2304 22.5167C47.8943 22.2294 47.4706 22.0841 46.9692 22.0841H35.6288L35.5938 21.3307C35.5238 19.8469 35.4702 18.3625 35.4173 16.8782C35.3427 14.8135 35.2659 12.679 35.1439 10.5854C35.0699 9.33298 34.1448 8.75516 33.3031 8.63239L33.1858 8.60593C32.95 8.53376 32.7436 8.5 32.5371 8.5H22.6319C21.5813 8.5 21.101 9.10307 20.8832 9.60861L20.8068 9.7847L20.6583 9.90645C20.2333 10.2555 20.021 10.7515 20.0267 11.3807C20.0622 15.2044 20.4547 19.015 20.8344 22.2385L20.9314 23.0593L17.1671 23.3354C15.1398 23.4844 13.1131 23.6338 11.0857 23.7791C10.7421 23.8039 10.4353 23.8968 10.1486 24.0623L10.0584 24.1145L9.95758 24.1412C9.06905 24.3796 8.42432 25.205 8.42432 26.1033V26.6693C8.42432 26.9765 8.50592 27.287 8.66731 27.5928L8.74374 27.7374L8.7553 27.9005C8.97051 30.6597 8.98876 33.4436 8.98927 36.2913C8.98927 37.6538 10.0108 38.0507 10.4505 38.1584L10.5454 38.1877C10.7968 38.2844 11.0473 38.3307 11.3119 38.3307H21.7417L21.7589 39.1034C21.786 40.3023 21.8263 41.5006 21.867 42.6985C21.9313 44.5832 21.9977 46.532 22.0073 48.4568C22.014 49.7941 23.0092 50.2024 23.4372 50.3162L23.5304 50.3476C23.7847 50.45 24.0465 50.5 24.3301 50.5H33.9517C34.5066 50.5 34.9627 50.3234 35.3092 49.9749L35.4651 49.8205C35.8142 49.4735 35.9911 49.0164 35.9911 48.4605C35.9906 45.5026 35.9701 42.0156 35.8212 38.5898L35.7853 37.7646H47.2534C48.5367 37.7646 49.088 36.8421 49.1775 35.9788L49.1961 35.7987L49.2909 35.6443C49.4824 35.3339 49.5759 34.9901 49.5759 34.5937V24.4058C49.5749 23.3406 48.9593 22.8603 48.441 22.6459ZM45.4964 33.6866H33.6696C32.1253 33.6866 31.8129 34.9638 31.7532 35.3555L31.7227 35.4822C31.6425 35.7282 31.6115 35.9768 31.628 36.2425C31.8427 39.6934 31.8884 43.0699 31.9039 45.6257L31.9086 46.4211H26.0587L26.0377 45.652C26.0111 44.709 25.9784 43.7649 25.9453 42.8218C25.8804 40.9635 25.813 39.0424 25.803 37.1449C25.802 36.9673 25.7777 36.7919 25.726 36.592L25.6983 36.483L25.7018 36.3702C25.7214 35.7489 25.5168 35.1703 25.1415 34.7822C24.801 34.4301 24.3377 34.2521 23.7638 34.2521H13.0628L13.0543 33.4701C13.0371 31.762 12.9732 30.0942 12.8652 28.5123L12.8108 27.7268L16.5017 27.456C18.5265 27.3067 20.5506 27.1582 22.5748 27.0127C22.7502 26.9998 22.9253 26.9642 23.1245 26.9003L23.2633 26.856L23.4092 26.8645C24.0428 26.9025 24.6137 26.7011 24.9357 26.3358C25.2062 26.0296 25.3095 25.6036 25.243 25.0703C24.7028 20.7362 24.3138 17.0927 24.173 13.3991L24.1414 12.5783H31.1677L31.2001 13.3358C31.248 14.4724 31.2882 15.6093 31.3283 16.7464C31.4066 18.965 31.4884 21.2596 31.6279 23.5082C31.6367 23.6438 31.6594 23.7823 31.6989 23.9437L31.7225 24.1318C31.7262 25.1423 32.329 26.1628 33.6684 26.1628H45.4962V33.6866H45.4964Z" fill="#FFCF32"/>
</g>
<defs>
<clipPath id="clip0_42_5036">
<rect width="58" height="49" fill="white" transform="translate(0 0.5)"/>
</clipPath>
</defs>
</svg>
